<svg width="36" height="36" viewBox="0 0 36 36" fill="none" xmlns="http://www.w3.org/2000/svg">
<circle cx="18" cy="18" r="18" fill="#E92322"/>
<path d="M13.9355 15.6743H10.838V25.5519H13.9355V15.6743Z" fill="white"/>
<path d="M22.3144 15.4603C22.2002 15.446 22.0789 15.4389 21.9576 15.4318C20.2233 15.3604 19.2455 16.3881 18.903 16.8306C18.8102 16.9519 18.7673 17.0233 18.7673 17.0233V15.703H15.8055V25.5806H18.7673H18.903C18.903 24.5743 18.903 23.5751 18.903 22.5688C18.903 22.0263 18.903 21.4839 18.903 20.9415C18.903 20.2706 18.853 19.5569 19.1884 18.9432C19.4739 18.4293 19.9878 18.1724 20.5659 18.1724C22.2787 18.1724 22.3144 19.7211 22.3144 19.8638C22.3144 19.871 22.3144 19.8781 22.3144 19.8781V25.6234H25.4119V19.1787C25.4119 16.9734 24.2914 15.6744 22.3144 15.4603Z" fill="white"/>
<path d="M12.3868 14.3973C13.3801 14.3973 14.1853 13.5921 14.1853 12.5988C14.1853 11.6055 13.3801 10.8003 12.3868 10.8003C11.3935 10.8003 10.5883 11.6055 10.5883 12.5988C10.5883 13.5921 11.3935 14.3973 12.3868 14.3973Z" fill="white"/>
</svg>
