<svg width="36" height="36" viewBox="0 0 36 36" fill="none" xmlns="http://www.w3.org/2000/svg">
<circle cx="18" cy="18" r="18" fill="#E92322"/>
<path d="M22.229 24.5643H13.7706C12.6018 24.5643 11.6469 23.6094 11.6469 22.4405V13.9821C11.6469 12.8133 12.6018 11.8584 13.7706 11.8584H22.229C23.3979 11.8584 24.3527 12.8133 24.3527 13.9821V22.4405C24.3527 23.6146 23.4031 24.5643 22.229 24.5643Z" fill="white"/>
<path d="M18.0024 21.4747C17.131 21.4747 16.3118 21.1355 15.696 20.5198C15.0803 19.904 14.7411 19.0848 14.7411 18.2134C14.7411 17.342 15.0803 16.5228 15.696 15.907C16.3118 15.2913 17.131 14.9521 18.0024 14.9521C18.8738 14.9521 19.6931 15.2913 20.3088 15.907C20.9245 16.5228 21.2637 17.342 21.2637 18.2134C21.2637 19.0848 20.9245 19.904 20.3088 20.5198C19.6878 21.1355 18.8738 21.4747 18.0024 21.4747ZM18.0024 15.6461C16.5883 15.6461 15.4351 16.7941 15.4351 18.2134C15.4351 19.6275 16.5831 20.7807 18.0024 20.7807C19.4165 20.7807 20.5697 19.6327 20.5697 18.2134C20.5645 16.7993 19.4165 15.6461 18.0024 15.6461Z" fill="#E92322"/>
<path d="M21.8993 14.8451C22.2451 14.8451 22.5255 14.5648 22.5255 14.219C22.5255 13.8731 22.2451 13.5928 21.8993 13.5928C21.5535 13.5928 21.2731 13.8731 21.2731 14.219C21.2731 14.5648 21.5535 14.8451 21.8993 14.8451Z" fill="#E92322"/>
</svg>
