<svg width="165" height="44" viewBox="0 0 165 44" fill="none" xmlns="http://www.w3.org/2000/svg">
<g clip-path="url(#clip0_131_378)">
<path d="M68.2967 30.6066H59.9404V9.87736H68.2967C71.383 9.87736 73.9483 10.8698 75.9906 12.8525C78.0351 14.8374 79.0563 17.2995 79.0563 20.2408C79.0563 23.1822 78.0351 25.6442 75.9906 27.6292C73.9461 29.6141 71.3807 30.6043 68.2967 30.6043V30.6066ZM64.2396 13.6379V26.846H67.9358C69.9004 26.846 71.5018 26.2249 72.7445 24.9804C73.9872 23.7358 74.6085 22.1582 74.6085 20.2431C74.6085 18.3279 73.9872 16.7233 72.7445 15.4901C71.5018 14.2568 69.8981 13.6402 67.9358 13.6402H64.2396V13.6379Z" fill="black"/>
<path d="M81.2836 11.0926C81.2836 10.422 81.5234 9.85485 82.0054 9.389C82.4852 8.9254 83.0677 8.6936 83.7484 8.6936C84.4292 8.6936 84.982 8.9254 85.4617 9.389C85.9415 9.8526 86.1836 10.4197 86.1836 11.0926C86.1836 11.7655 85.9437 12.3056 85.4617 12.7805C84.9797 13.2553 84.4086 13.4916 83.7484 13.4916C83.0882 13.4916 82.4852 13.2553 82.0054 12.7805C81.5234 12.3056 81.2836 11.743 81.2836 11.0926ZM85.761 30.6066H81.7039V15.3258H85.761V30.6066Z" fill="black"/>
<path d="M100.79 17.0744V15.328H104.847V28.8894C104.847 31.1399 104.054 33.0258 102.471 34.5449C100.888 36.064 98.9146 36.8247 96.5502 36.8247C94.9465 36.8247 93.5142 36.4488 92.251 35.6994C90.9877 34.95 90.0168 33.953 89.3361 32.7085L92.9728 30.8136C93.7541 32.3934 94.9465 33.1834 96.5502 33.1834C97.7312 33.1834 98.7341 32.7783 99.5565 31.9704C100.379 31.1602 100.788 30.134 100.788 28.8917V28.3876C99.5062 29.7491 97.8614 30.431 95.858 30.431C93.7335 30.431 91.9608 29.6906 90.5377 28.2098C89.1145 26.729 88.404 24.9038 88.404 22.7321C88.404 20.5604 89.1145 18.7353 90.5377 17.2544C91.9608 15.7736 93.7335 15.0332 95.858 15.0332C97.8614 15.0332 99.5039 15.7151 100.788 17.0767L100.79 17.0744ZM93.7861 25.6172C94.5673 26.3982 95.5382 26.7875 96.701 26.7875C97.8637 26.7875 98.8346 26.4027 99.6159 25.633C100.397 24.8633 100.788 23.8956 100.788 22.7299C100.788 21.5641 100.397 20.6279 99.6159 19.8583C98.8346 19.0886 97.8614 18.7038 96.701 18.7038C95.5405 18.7038 94.5673 19.0886 93.7861 19.8583C93.0048 20.6279 92.6142 21.5866 92.6142 22.7299C92.6142 23.8731 93.0048 24.8386 93.7861 25.6172Z" fill="black"/>
<path d="M107.673 11.0926C107.673 10.422 107.913 9.85485 108.395 9.389C108.875 8.9254 109.457 8.6936 110.138 8.6936C110.819 8.6936 111.371 8.9254 111.851 9.389C112.331 9.8526 112.573 10.4197 112.573 11.0926C112.573 11.7655 112.333 12.3056 111.851 12.7805C111.369 13.2553 110.798 13.4916 110.138 13.4916C109.478 13.4916 108.875 13.2553 108.395 12.7805C107.913 12.3056 107.673 11.743 107.673 11.0926ZM112.153 30.6066H108.096V15.3258H112.153V30.6066Z" fill="black"/>
<path d="M118.376 28.6125C116.793 27.0934 116 25.2075 116 22.957C116 20.7065 116.79 18.8206 118.376 17.3015C119.959 15.7824 121.933 15.0218 124.297 15.0218C125.96 15.0218 127.454 15.4471 128.777 16.2956C130.099 17.144 131.091 18.339 131.753 19.8783L128.025 21.1521C127.685 20.3622 127.184 19.7546 126.522 19.3315C125.859 18.9061 125.119 18.6946 124.297 18.6946C123.134 18.6946 122.163 19.1042 121.382 19.9233C120.601 20.7425 120.21 21.7552 120.21 22.9592C120.21 24.1633 120.601 25.2052 121.382 26.0244C122.163 26.8436 123.134 27.2532 124.297 27.2532C125.119 27.2532 125.859 27.0371 126.522 26.6028C127.182 26.1684 127.685 25.5563 128.025 24.7664L131.753 26.0402C131.093 27.5795 130.099 28.7745 128.777 29.6229C127.454 30.4714 125.96 30.8967 124.297 30.8967C121.933 30.8967 119.959 30.136 118.376 28.617V28.6125Z" fill="black"/>
<path d="M139.447 15.031C141.411 15.031 143.003 15.5351 144.226 16.541C145.448 17.547 146.06 19.0188 146.06 20.9542V30.6088H142.003V28.7432C140.781 30.1835 139.147 30.9059 137.103 30.9059C135.641 30.9059 134.432 30.5053 133.48 29.7064C132.527 28.9074 132.052 27.8452 132.052 26.5242C132.052 23.6616 134.046 22.0232 138.035 21.6091L140.559 21.3728C141.521 21.3143 142.003 20.9092 142.003 20.1598C142.003 19.6062 141.768 19.1629 141.297 18.8275C140.826 18.4922 140.219 18.3234 139.479 18.3234C138.677 18.3234 138.021 18.526 137.51 18.9311C136.998 19.3361 136.673 19.9033 136.532 20.6347L132.504 19.7457C132.724 18.3842 133.457 17.2589 134.7 16.37C135.942 15.4811 137.525 15.0377 139.449 15.0377L139.447 15.031ZM138.092 27.7327C139.154 27.7327 140.07 27.3771 140.842 26.666C141.615 25.9548 142.001 25.1356 142.001 24.2084V23.8821C141.8 24.0396 141.338 24.1679 140.619 24.2669L138.003 24.564C137.423 24.6428 136.961 24.8251 136.621 25.1109C136.28 25.3967 136.109 25.7568 136.109 26.1911C136.109 26.6255 136.29 27.0148 136.651 27.3006C137.011 27.5864 137.491 27.7304 138.094 27.7304L138.092 27.7327Z" fill="black"/>
<path d="M158.051 15.031C159.894 15.031 161.397 15.6228 162.56 16.8066C163.723 17.9904 164.303 19.5004 164.303 21.3368V30.6043H160.246V22.0457C160.246 21.06 159.919 20.2498 159.268 19.6174C158.617 18.9851 157.77 18.67 156.728 18.67C155.687 18.67 154.864 18.9851 154.204 19.6174C153.544 20.2498 153.212 21.0578 153.212 22.0457V30.6043H149.155V15.3235H153.212V17.3085C154.396 15.7894 156.009 15.0287 158.053 15.0287L158.051 15.031Z" fill="black"/>
<path d="M43.1889 30.7979C45.7223 25.9863 45.9919 20.1486 44.1232 15.0445C45.8137 20.1846 45.5053 25.8535 43.1889 30.7979Z" fill="#CD1A2D"/>
<path d="M44.1232 15.0445C43.2689 12.4474 41.9074 9.98538 40.0296 7.81816C33.0462 -0.23857 21.6196 -1.87242 12.8338 2.91661C10.5996 4.13412 8.53455 5.76797 6.75728 7.81816C4.76072 10.1227 3.34439 12.7647 2.50601 15.5463C4.02971 15.5396 5.5534 15.5328 7.07481 15.5328C7.08167 15.5328 7.08624 15.5328 7.09309 15.5328C7.12279 15.5328 7.15248 15.5373 7.18218 15.5396C7.19817 15.5373 7.21416 15.5328 7.23015 15.5328C14.3689 15.5328 21.5168 15.5193 28.6578 15.5463C28.6761 15.5463 28.6967 15.5463 28.7149 15.5531C39.4014 17.8283 42.7503 31.1962 34.1381 37.9926C34.1267 38.0016 34.1153 38.0107 34.1016 38.0174L30.6133 39.9866L30.547 40.0248C30.5242 40.0383 30.4991 40.0473 30.4716 40.0541C29.9257 40.1711 29.6698 40.2094 29.0759 40.2814C29.0667 40.2814 29.0576 40.2836 29.0485 40.2859C28.9183 40.3174 28.7972 40.3377 28.6875 40.3444C28.6738 40.4434 28.6053 40.5334 28.4865 40.556C28.4043 40.5717 28.322 40.5695 28.2466 40.5357L12.7653 40.5222C21.5602 45.354 33.0256 43.7336 40.025 35.6566C41.3226 34.1601 42.3757 32.5217 43.1843 30.7934C45.5007 25.849 45.8091 20.1801 44.1187 15.04L44.1232 15.0445Z" fill="#CD1A2D"/>
<path d="M34.1424 37.9926C34.1424 37.9926 34.1196 38.0107 34.1059 38.0174L30.6176 39.9866L30.5514 40.0248C30.5285 40.0383 30.5034 40.0473 30.476 40.0541C29.9323 40.1711 29.6742 40.2094 29.0802 40.2814C29.0711 40.2814 29.0619 40.2836 29.0528 40.2859C28.9226 40.3174 28.8015 40.3377 28.6919 40.3444C28.7079 40.2364 28.6576 40.1216 28.5342 40.0721L28.4657 40.0451C30.1859 39.8853 31.906 37.8306 32.3812 36.289C33.7084 31.9726 30.677 28.2728 26.2978 27.8992C19.5977 27.3276 11.3281 27.951 4.42696 27.9082C3.79189 27.9037 3.14769 27.9217 2.50349 27.9262C1.74278 27.933 0.979794 27.924 0.230511 27.8407C0.0431898 27.8205 -0.0618927 27.6202 0.0340521 27.4604L1.7702 24.5213L7.01061 15.6566C7.04716 15.5936 7.11113 15.5508 7.18423 15.5373C7.20022 15.5351 7.21621 15.5306 7.2322 15.5306C14.371 15.5306 21.5188 15.5171 28.6599 15.5441C28.6782 15.5441 28.6987 15.5441 28.717 15.5508C39.4034 17.8261 42.7524 31.1939 34.1402 37.9904L34.1424 37.9926Z" fill="#E92322"/>
<path d="M32.3814 36.289C31.9085 37.8306 30.1861 39.8853 28.4659 40.0451L28.5345 40.0721C28.6578 40.1216 28.7081 40.2364 28.6921 40.3444C28.6784 40.4434 28.6099 40.5334 28.4911 40.556C28.4088 40.5717 28.3266 40.5695 28.2512 40.5357L12.7698 40.5222L5.83438 40.5154C5.63792 40.5154 5.51456 40.3084 5.6105 40.1396L7.61849 36.5928L12.1941 28.5091C12.2878 28.3426 12.169 28.1378 11.9771 28.1333L4.42719 27.906C11.3261 27.9487 19.5979 27.3254 26.298 27.897C30.6772 28.2706 33.7086 31.9704 32.3814 36.2868V36.289Z" fill="#FB291C"/>
</g>
<defs>
<clipPath id="clip0_131_378">
<rect width="165" height="43" fill="white" transform="translate(0 0.238533)"/>
</clipPath>
</defs>
</svg>
