<svg width="252" height="66" viewBox="0 0 252 66" fill="none" xmlns="http://www.w3.org/2000/svg">
<g clip-path="url(#clip0_131_394)">
<path d="M104.308 46.6114H91.5453V14.7944H104.308C109.021 14.7944 112.939 16.3177 116.058 19.3609C119.181 22.4076 120.74 26.1865 120.74 30.7012C120.74 35.2158 119.181 38.9948 116.058 42.0414C112.936 45.088 109.018 46.6079 104.308 46.6079V46.6114ZM98.1115 20.5665V40.8393H103.757C106.757 40.8393 109.203 39.886 111.101 37.9758C112.999 36.0656 113.948 33.6442 113.948 30.7046C113.948 27.7651 112.999 25.3022 111.101 23.4093C109.203 21.5164 106.753 20.5699 103.757 20.5699H98.1115V20.5665Z" fill="white"/>
<path d="M124.142 16.6597C124.142 15.6304 124.509 14.7599 125.245 14.0449C125.977 13.3333 126.867 12.9775 127.907 12.9775C128.946 12.9775 129.791 13.3333 130.523 14.0449C131.256 14.7565 131.626 15.6269 131.626 16.6597C131.626 17.6926 131.26 18.5216 130.523 19.2504C129.787 19.9793 128.915 20.342 127.907 20.342C126.898 20.342 125.977 19.9793 125.245 19.2504C124.509 18.5216 124.142 17.658 124.142 16.6597ZM130.98 46.6114H124.784V23.1572H130.98V46.6114Z" fill="white"/>
<path d="M153.934 25.841V23.1605H160.13V43.9757C160.13 47.4299 158.92 50.3246 156.502 52.6562C154.084 54.9878 151.07 56.1553 147.459 56.1553C145.009 56.1553 142.822 55.5785 140.892 54.4282C138.963 53.278 137.48 51.7477 136.441 49.8375L141.995 46.9291C143.188 49.354 145.009 50.5664 147.459 50.5664C149.262 50.5664 150.794 49.9446 152.05 48.7046C153.306 47.461 153.93 45.8859 153.93 43.9792V43.2054C151.973 45.2952 149.461 46.3419 146.401 46.3419C143.157 46.3419 140.449 45.2054 138.276 42.9325C136.102 40.6597 135.017 37.8583 135.017 34.5249C135.017 31.1916 136.102 28.3902 138.276 26.1173C140.449 23.8445 143.157 22.708 146.401 22.708C149.461 22.708 151.97 23.7546 153.93 25.8445L153.934 25.841ZM143.237 38.9533C144.43 40.1519 145.913 40.7495 147.689 40.7495C149.465 40.7495 150.947 40.1588 152.141 38.9774C153.334 37.7961 153.93 36.3108 153.93 34.5215C153.93 32.7322 153.334 31.2952 152.141 30.1139C150.947 28.9325 149.461 28.3419 147.689 28.3419C145.916 28.3419 144.43 28.9325 143.237 30.1139C142.044 31.2952 141.447 32.7667 141.447 34.5215C141.447 36.2762 142.044 37.7581 143.237 38.9533Z" fill="white"/>
<path d="M164.446 16.6597C164.446 15.6304 164.812 14.7599 165.548 14.0449C166.281 13.3333 167.171 12.9775 168.211 12.9775C169.25 12.9775 170.095 13.3333 170.827 14.0449C171.56 14.7565 171.93 15.6269 171.93 16.6597C171.93 17.6926 171.563 18.5216 170.827 19.2504C170.091 19.9793 169.219 20.342 168.211 20.342C167.202 20.342 166.281 19.9793 165.548 19.2504C164.812 18.5216 164.446 17.658 164.446 16.6597ZM171.288 46.6114H165.091V23.1572H171.288V46.6114Z" fill="white"/>
<path d="M178.953 43.5647C176.535 41.2331 175.324 38.3384 175.324 34.8842C175.324 31.43 176.532 28.5353 178.953 26.2037C181.371 23.8721 184.385 22.7046 187.996 22.7046C190.536 22.7046 192.818 23.3574 194.838 24.6597C196.858 25.9619 198.372 27.7961 199.384 30.1588L193.69 32.1139C193.17 30.9015 192.406 29.9688 191.394 29.3194C190.383 28.6666 189.252 28.3419 187.996 28.3419C186.22 28.3419 184.737 28.9706 183.544 30.2279C182.351 31.4852 181.754 33.0396 181.754 34.8877C181.754 36.7357 182.351 38.335 183.544 39.5923C184.737 40.8497 186.22 41.4783 187.996 41.4783C189.252 41.4783 190.383 41.1467 191.394 40.4801C192.403 39.8134 193.17 38.8738 193.69 37.6614L199.384 39.6165C198.376 41.9792 196.858 43.8134 194.838 45.1156C192.818 46.4179 190.536 47.0707 187.996 47.0707C184.385 47.0707 181.371 45.9032 178.953 43.5716V43.5647Z" fill="white"/>
<path d="M212.973 22.7046C215.974 22.7046 218.405 23.4783 220.272 25.0224C222.138 26.5664 223.074 28.8255 223.074 31.7961V46.6148H216.877V43.7512C215.011 45.9619 212.516 47.0707 209.394 47.0707C207.161 47.0707 205.315 46.4559 203.86 45.2296C202.405 44.0034 201.68 42.373 201.68 40.3453C201.68 35.9516 204.725 33.4369 210.817 32.8013L214.672 32.4386C216.141 32.3488 216.877 31.727 216.877 30.5768C216.877 29.727 216.518 29.0466 215.799 28.5319C215.08 28.0172 214.152 27.7581 213.022 27.7581C211.797 27.7581 210.796 28.069 210.015 28.6908C209.233 29.3125 208.738 30.183 208.521 31.3056L202.37 29.9412C202.705 27.8514 203.825 26.1243 205.723 24.7599C207.621 23.3954 210.039 22.715 212.977 22.715L212.973 22.7046ZM210.904 42.2003C212.527 42.2003 213.926 41.6545 215.105 40.563C216.284 39.4714 216.874 38.2141 216.874 36.7909V36.2901C216.567 36.5319 215.862 36.7288 214.763 36.8808L210.768 37.3367C209.882 37.4576 209.177 37.7374 208.657 38.1761C208.138 38.6148 207.876 39.1675 207.876 39.8341C207.876 40.5008 208.151 41.0984 208.703 41.5371C209.254 41.9757 209.987 42.1968 210.908 42.1968L210.904 42.2003Z" fill="white"/>
<path d="M241.387 22.7046C244.202 22.7046 246.498 23.6131 248.274 25.43C250.05 27.2469 250.936 29.5647 250.936 32.3834V46.6079H244.74V33.4715C244.74 31.9585 244.241 30.715 243.246 29.7443C242.252 28.7737 240.958 28.2901 239.367 28.2901C237.776 28.2901 236.52 28.7737 235.511 29.7443C234.503 30.715 233.997 31.9551 233.997 33.4715V46.6079H227.801V23.1537H233.997V26.2003C235.805 23.8687 238.268 22.7012 241.39 22.7012L241.387 22.7046Z" fill="white"/>
<path d="M65.9612 46.9052C69.8304 39.5201 70.2421 30.5598 67.3882 22.7256C69.97 30.6151 69.499 39.3163 65.9612 46.9052Z" fill="#CD1A2D"/>
<path d="M67.3882 22.7254C66.0833 18.7392 64.0039 14.9603 61.1361 11.6339C50.4705 -0.732262 33.019 -3.24004 19.6007 4.11057C16.1885 5.97931 13.0345 8.48708 10.3202 11.6339C7.27088 15.171 5.10776 19.2263 3.82733 23.4957C6.15443 23.4853 8.48153 23.475 10.8051 23.475C10.8156 23.475 10.8226 23.475 10.833 23.475C10.8784 23.475 10.9238 23.4819 10.9691 23.4853C10.9935 23.4819 11.018 23.475 11.0424 23.475C21.9452 23.475 32.862 23.4543 43.7683 23.4957C43.7962 23.4957 43.8276 23.4957 43.8555 23.5061C60.1766 26.9983 65.2913 47.5164 52.1382 57.9482C52.1207 57.962 52.1033 57.9758 52.0824 57.9862L46.7548 61.0087L46.6536 61.0674C46.6187 61.0881 46.5804 61.1019 46.5385 61.1123C45.7046 61.2919 45.3139 61.3506 44.4068 61.4612C44.3928 61.4612 44.3789 61.4646 44.3649 61.4681C44.166 61.5164 43.9811 61.5475 43.8137 61.5579C43.7927 61.7099 43.6881 61.848 43.5066 61.8826C43.381 61.9068 43.2554 61.9033 43.1403 61.8515L19.496 61.8308C32.9283 69.247 50.4391 66.76 61.1291 54.3627C63.1108 52.0657 64.7192 49.551 65.9542 46.8981C69.492 39.3092 69.963 30.608 67.3812 22.7185L67.3882 22.7254Z" fill="#CD1A2D"/>
<path d="M52.1448 57.9482C52.1448 57.9482 52.1099 57.9758 52.089 57.9862L46.7614 61.0086L46.6603 61.0673C46.6254 61.0881 46.587 61.1019 46.5451 61.1123C45.7148 61.2919 45.3205 61.3506 44.4134 61.4611C44.3994 61.4611 44.3855 61.4646 44.3715 61.468C44.1727 61.5164 43.9877 61.5475 43.8203 61.5578C43.8447 61.392 43.7679 61.2159 43.5795 61.1399L43.4749 61.0984C46.102 60.8532 48.7292 57.6995 49.4549 55.3333C51.4819 48.7081 46.8521 43.0294 40.1639 42.4559C29.931 41.5786 17.3011 42.5354 6.76115 42.4698C5.79123 42.4629 4.80736 42.4905 3.82349 42.4974C2.66169 42.5078 1.49639 42.4939 0.352034 42.3661C0.0659437 42.335 -0.0945459 42.0276 0.051988 41.7824L2.70355 37.2711L10.7071 23.6649C10.7629 23.5682 10.8606 23.5026 10.9723 23.4819C10.9967 23.4784 11.0211 23.4715 11.0455 23.4715C21.9483 23.4715 32.8651 23.4508 43.7714 23.4922C43.7993 23.4922 43.8307 23.4922 43.8587 23.5026C60.1797 26.9948 65.2945 47.5129 52.1413 57.9447L52.1448 57.9482Z" fill="#E92322"/>
<path d="M49.4552 55.3333C48.733 57.6995 46.1024 60.8532 43.4752 61.0985L43.5799 61.1399C43.7683 61.2159 43.8451 61.3921 43.8206 61.5579C43.7997 61.7099 43.695 61.848 43.5136 61.8826C43.388 61.9067 43.2624 61.9033 43.1473 61.8515L19.503 61.8307L8.91066 61.8204C8.61062 61.8204 8.42222 61.5026 8.56875 61.2435L11.6355 55.7997L18.6238 43.3921C18.7668 43.1365 18.5854 42.8221 18.2923 42.8152L6.7615 42.4663C17.298 42.532 29.9313 41.5751 40.1643 42.4525C46.8525 43.0259 51.4823 48.7047 49.4552 55.3299V55.3333Z" fill="#FB291C"/>
</g>
<defs>
<clipPath id="clip0_131_394">
<rect width="252" height="66" fill="white"/>
</clipPath>
</defs>
</svg>
